<svg xmlns="http://www.w3.org/2000/svg" version="1.1" xmlns:xlink="http://www.w3.org/1999/xlink" xmlns:svgjs="http://svgjs.dev/svgjs" width="1500" height="1500" viewBox="0 0 1500 1500"><rect width="1500" height="1500" fill="#8dbdff"></rect><g transform="matrix(0.6666666666666666,0,0,0.6666666666666666,249.39393939393938,512.3104268794016)"><svg viewBox="0 0 396 188" data-background-color="#8dbdff" preserveAspectRatio="xMidYMid meet" height="712" width="1500" xmlns="http://www.w3.org/2000/svg" xmlns:xlink="http://www.w3.org/1999/xlink"><g id="tight-bounds" transform="matrix(1,0,0,1,0.2400000000000091,0.14109497192248455)"><svg viewBox="0 0 395.52 187.71781005615503" height="187.71781005615503" width="395.52"><g><svg viewBox="0 0 397.4975999999999 188.65639910643577" height="187.71781005615503" width="395.52"><g><rect width="397.4975999999999" height="5.7782963339801485" x="0" y="103.677263517025" fill="#0080ff" opacity="1" stroke-width="0" stroke="transparent" fill-opacity="1" class="rect-qz-0" data-fill-palette-color="secondary" rx="1%" id="qz-0" data-palette-color="#0080ff"></rect></g><g transform="matrix(1,0,0,1,0.9887999999999693,124.58199004467046)"><svg viewBox="0 0 395.52 64.07440906176532" height="64.07440906176532" width="395.52"><g id="textblocktransform"><svg viewBox="0 0 395.52 64.07440906176532" height="64.07440906176532" width="395.52" id="textblock"><g><svg viewBox="0 0 395.52 64.07440906176532" height="64.07440906176532" width="395.52"><g transform="matrix(1,0,0,1,0,0)"><svg width="395.52" viewBox="0.8 -37.6 233.92999999999998 37.9" height="64.07440906176532" data-palette-color="#0080ff"><path d="M10 0.1L7.9 0.1Q7.25 0.1 6.75-0.1 6.25-0.3 6.1-0.95L6.1-0.95 0.95-24.4Q0.8-25.25 0.8-25.4L0.8-25.4Q0.8-26.25 2.75-26.25L2.75-26.25 3.4-26.25Q4.1-26.25 4.63-26.08 5.15-25.9 5.2-25.45L5.2-25.45 8.95-4.4 9.25-4.4 12.75-25.4Q12.85-25.9 13.33-26.08 13.8-26.25 14.5-26.25L14.5-26.25 15.45-26.25Q16.2-26.25 16.7-26.08 17.2-25.9 17.25-25.4L17.25-25.4 20.95-4.4 21.25-4.4 24.8-25.45Q24.9-25.9 25.43-26.08 25.95-26.25 26.65-26.25L26.65-26.25 27.25-26.25Q29.05-26.25 29.05-25.4L29.05-25.4Q29.05-25.25 29.03-25.1 29-24.95 28.95-24.7L28.95-24.7 23.75-0.95Q23.6-0.3 23.13-0.1 22.65 0.1 22 0.1L22 0.1 20.15 0.1Q19.5 0.1 18.95-0.1 18.4-0.3 18.3-0.95L18.3-0.95 15.1-18.75 14.9-18.75 11.75-0.95Q11.65-0.3 11.15-0.1 10.65 0.1 10 0.1L10 0.1ZM41.65 0.3L41.65 0.3Q36.65 0.3 34.1-2.95 31.55-6.2 31.55-12.9L31.55-12.9Q31.55-19.55 34.05-23 36.55-26.45 41.4-26.45L41.4-26.45Q45.75-26.45 47.95-23.1 50.15-19.75 50.15-13.35L50.15-13.35Q50.15-11.35 48.4-11.35L48.4-11.35 35.95-11.35Q36.1-7.2 37.5-5.25 38.9-3.3 41.95-3.3L41.95-3.3Q43.7-3.3 45.05-3.8 46.4-4.3 47.27-4.78 48.15-5.25 48.4-5.25L48.4-5.25Q48.9-5.25 49.22-4.38 49.55-3.5 49.55-2.9L49.55-2.9Q49.55-2.45 48.5-1.68 47.45-0.9 45.67-0.3 43.9 0.3 41.65 0.3ZM36-14.95L36-14.95 45.9-14.95Q45.9-22.85 41.25-22.85L41.25-22.85Q36.15-22.85 36-14.95ZM61.09 0.3L61.09 0.3Q57.9 0.3 55.97-1.68 54.05-3.65 54.05-7.45L54.05-7.45Q54.05-10.45 55.27-12.28 56.5-14.1 58.47-15.03 60.45-15.95 62.8-16.25 65.15-16.55 67.4-16.55L67.4-16.55 67.4-18.95Q67.4-20.5 66.47-21.68 65.55-22.85 63.15-22.85L63.15-22.85Q61.3-22.85 59.77-22.45 58.25-22.05 57.3-21.63 56.34-21.2 56.05-21.2L56.05-21.2Q55.55-21.2 55.25-22.15 54.95-23.1 54.95-23.7L54.95-23.7Q54.95-24.15 56.2-24.8 57.45-25.45 59.34-25.95 61.25-26.45 63.2-26.45L63.2-26.45Q67.2-26.45 69.45-24.45 71.7-22.45 71.7-18.9L71.7-18.9 71.7-7.4Q71.7-4.35 71.95-2.93 72.2-1.5 72.2-1.15L72.2-1.15Q72.2-0.55 71.15-0.25 70.09 0.05 69.3 0.05L69.3 0.05Q68.65 0.05 68.37-0.68 68.09-1.4 67.75-3.15L67.75-3.15Q66.5-1.55 64.87-0.63 63.25 0.3 61.09 0.3ZM61.9-3.25L61.9-3.25Q63.65-3.25 65.02-4.1 66.4-4.95 67.4-6.5L67.4-6.5 67.4-13Q62.5-13 60.47-11.88 58.45-10.75 58.45-7.5L58.45-7.5Q58.45-3.25 61.9-3.25ZM84.89 0.3L84.89 0.3Q83.84 0.3 82.54-0.15 81.24-0.6 80.32-1.93 79.39-3.25 79.39-5.8L79.39-5.8 79.39-22.55 77.39-22.55Q76.39-22.55 76.39-24.05L76.39-24.05 76.39-24.65Q76.39-26.15 77.39-26.15L77.39-26.15 79.39-26.15 79.99-31.4Q80.14-32.5 81.54-32.5L81.54-32.5 81.94-32.5Q82.94-32.5 83.32-32.23 83.69-31.95 83.69-31.4L83.69-31.4 83.69-26.15 87.04-26.15Q88.04-26.15 88.04-24.65L88.04-24.65 88.04-24.05Q88.04-22.55 87.04-22.55L87.04-22.55 83.69-22.55 83.69-6.3Q83.69-4.55 84.07-3.93 84.44-3.3 85.54-3.3L85.54-3.3Q86.44-3.3 86.87-3.43 87.29-3.55 87.54-3.55L87.54-3.55Q87.89-3.55 88.07-3.05 88.24-2.55 88.29-1.98 88.34-1.4 88.34-1.15L88.34-1.15Q88.34-0.65 87.74-0.33 87.14 0 86.34 0.15 85.54 0.3 84.89 0.3ZM95.64 0.1L95.24 0.1Q94.14 0.1 93.72-0.2 93.29-0.5 93.29-1L93.29-1 93.29-36.5Q93.29-37.6 95.19-37.6L95.19-37.6 95.69-37.6Q97.59-37.6 97.59-36.5L97.59-36.5 97.59-23.1Q98.59-24.5 100.24-25.48 101.89-26.45 103.89-26.45L103.89-26.45Q105.64-26.45 107.14-25.75 108.64-25.05 109.57-23.55 110.49-22.05 110.49-19.6L110.49-19.6 110.49-1Q110.49-0.5 110.07-0.2 109.64 0.1 108.54 0.1L108.54 0.1 108.14 0.1Q107.04 0.1 106.62-0.2 106.19-0.5 106.19-1L106.19-1 106.19-18.75Q106.19-20.65 105.27-21.73 104.34-22.8 102.44-22.8L102.44-22.8Q101.14-22.8 100.09-22.18 99.04-21.55 98.42-20.73 97.79-19.9 97.59-19.3L97.59-19.3 97.59-1Q97.59-0.5 97.17-0.2 96.74 0.1 95.64 0.1L95.64 0.1ZM126.24 0.3L126.24 0.3Q121.24 0.3 118.69-2.95 116.14-6.2 116.14-12.9L116.14-12.9Q116.14-19.55 118.64-23 121.14-26.45 125.99-26.45L125.99-26.45Q130.34-26.45 132.54-23.1 134.74-19.75 134.74-13.35L134.74-13.35Q134.74-11.35 132.99-11.35L132.99-11.35 120.54-11.35Q120.69-7.2 122.09-5.25 123.49-3.3 126.54-3.3L126.54-3.3Q128.29-3.3 129.64-3.8 130.99-4.3 131.86-4.78 132.74-5.25 132.99-5.25L132.99-5.25Q133.49-5.25 133.81-4.38 134.14-3.5 134.14-2.9L134.14-2.9Q134.14-2.45 133.09-1.68 132.04-0.9 130.26-0.3 128.49 0.3 126.24 0.3ZM120.59-14.95L120.59-14.95 130.49-14.95Q130.49-22.85 125.84-22.85L125.84-22.85Q120.74-22.85 120.59-14.95ZM142.44 0.1L142.24 0.1Q140.24 0.1 140.24-1L140.24-1 140.24-18.65Q140.24-21.75 139.99-23.18 139.74-24.6 139.74-25.1L139.74-25.1Q139.74-25.65 140.79-25.88 141.84-26.1 142.64-26.1L142.64-26.1Q143.34-26.1 143.61-25.38 143.89-24.65 144.24-22.75L144.24-22.75Q145.54-24.5 147.24-25.48 148.94-26.45 150.49-26.45L150.49-26.45Q151.34-26.45 151.64-26.05 151.94-25.65 151.94-24.85L151.94-24.85Q151.94-23.75 151.64-22.93 151.34-22.1 150.89-22.1L150.89-22.1Q150.54-22.1 150.06-22.23 149.59-22.35 148.64-22.35L148.64-22.35Q147.24-22.35 146.09-21.48 144.94-20.6 144.54-19.3L144.54-19.3 144.54-1Q144.54 0.1 142.44 0.1L142.44 0.1ZM162.78 0.1L160.68 0.1Q160.03 0.1 159.53-0.1 159.03-0.3 158.88-0.95L158.88-0.95 152.68-24.7Q152.63-24.9 152.61-25.08 152.58-25.25 152.58-25.4L152.58-25.4Q152.58-26.25 154.53-26.25L154.53-26.25 155.18-26.25Q155.88-26.25 156.38-26.08 156.88-25.9 156.98-25.45L156.98-25.45 161.78-4.4 161.98-4.4 166.58-25.45Q166.68-25.9 167.21-26.08 167.73-26.25 168.43-26.25L168.43-26.25 169.03-26.25Q170.83-26.25 170.83-25.4L170.83-25.4Q170.83-25.25 170.83-25.1 170.83-24.95 170.73-24.7L170.73-24.7 164.53-0.95Q164.38-0.3 163.91-0.1 163.43 0.1 162.78 0.1L162.78 0.1ZM177.93 0.1L177.53 0.1Q176.43 0.1 176.01-0.2 175.58-0.5 175.58-1L175.58-1 175.58-25.15Q175.58-25.7 176.01-25.98 176.43-26.25 177.53-26.25L177.53-26.25 177.93-26.25Q179.03-26.25 179.46-25.98 179.88-25.7 179.88-25.15L179.88-25.15 179.88-1Q179.88-0.5 179.46-0.2 179.03 0.1 177.93 0.1L177.93 0.1ZM177.73-29.75L177.73-29.75Q176.53-29.75 176.03-30.05 175.53-30.35 175.53-30.85L175.53-30.85 175.53-33.85Q175.53-34.35 176.03-34.65 176.53-34.95 177.73-34.95L177.73-34.95Q178.93-34.95 179.43-34.68 179.93-34.4 179.93-33.85L179.93-33.85 179.93-30.85Q179.93-30.35 179.43-30.05 178.93-29.75 177.73-29.75ZM195.78 0.3L195.78 0.3Q190.78 0.3 188.23-2.95 185.68-6.2 185.68-12.9L185.68-12.9Q185.68-19.55 188.18-23 190.68-26.45 195.53-26.45L195.53-26.45Q199.88-26.45 202.08-23.1 204.28-19.75 204.28-13.35L204.28-13.35Q204.28-11.35 202.53-11.35L202.53-11.35 190.08-11.35Q190.23-7.2 191.63-5.25 193.03-3.3 196.08-3.3L196.08-3.3Q197.83-3.3 199.18-3.8 200.53-4.3 201.4-4.78 202.28-5.25 202.53-5.25L202.53-5.25Q203.03-5.25 203.35-4.38 203.68-3.5 203.68-2.9L203.68-2.9Q203.68-2.45 202.63-1.68 201.58-0.9 199.8-0.3 198.03 0.3 195.78 0.3ZM190.13-14.95L190.13-14.95 200.03-14.95Q200.03-22.85 195.38-22.85L195.38-22.85Q190.28-22.85 190.13-14.95ZM215.68 0.1L213.58 0.1Q212.93 0.1 212.43-0.1 211.93-0.3 211.78-0.95L211.78-0.95 206.63-24.4Q206.48-25.25 206.48-25.4L206.48-25.4Q206.48-26.25 208.43-26.25L208.43-26.25 209.08-26.25Q209.78-26.25 210.3-26.08 210.83-25.9 210.88-25.45L210.88-25.45 214.63-4.4 214.93-4.4 218.43-25.4Q218.53-25.9 219-26.08 219.48-26.25 220.18-26.25L220.18-26.25 221.13-26.25Q221.88-26.25 222.38-26.08 222.88-25.9 222.93-25.4L222.93-25.4 226.63-4.4 226.93-4.4 230.48-25.45Q230.58-25.9 231.1-26.08 231.63-26.25 232.33-26.25L232.33-26.25 232.93-26.25Q234.73-26.25 234.73-25.4L234.73-25.4Q234.73-25.25 234.7-25.1 234.68-24.95 234.63-24.7L234.63-24.7 229.43-0.95Q229.28-0.3 228.8-0.1 228.33 0.1 227.68 0.1L227.68 0.1 225.83 0.1Q225.18 0.1 224.63-0.1 224.08-0.3 223.98-0.95L223.98-0.95 220.78-18.75 220.58-18.75 217.43-0.95Q217.33-0.3 216.83-0.1 216.33 0.1 215.68 0.1L215.68 0.1Z" opacity="1" transform="matrix(1,0,0,1,0,0)" fill="#0080ff" class="wordmark-text-0" data-fill-palette-color="primary" id="text-0"></path></svg></g></svg></g></svg></g></svg></g><g transform="matrix(1,0,0,1,120.62642944890926,0)"><svg viewBox="0 0 156.2447411021814 88.55083332335968" height="88.55083332335968" width="156.2447411021814"><g><svg xmlns="http://www.w3.org/2000/svg" xmlns:xlink="http://www.w3.org/1999/xlink" version="1.1" x="8" y="0" viewBox="0 18.211999999999993 99.43899999999996 62.786" enable-background="new 0 0 100 100" xml:space="preserve" height="88.55083332335968" width="140.2447411021814" class="icon-icon-0" data-fill-palette-color="accent" id="icon-0"><g fill="#010c80" data-fill-palette-color="accent"><path d="M36.478 60.17c1.729-1.139 3.732-1.832 5.796-2.002 0.351-0.031 0.703-0.045 1.047-0.045 0.125 0 0.241 0.002 0.349 0.004 0.2 0.008 0.399 0.018 0.597 0.031l0.012-0.092c0.994-8.77 7.074-16.161 15.492-18.829 0.81-0.258 1.644-0.471 2.479-0.633 1.414-0.276 2.863-0.416 4.309-0.416 0.983 0 1.959 0.065 2.923 0.193-2.316-8.972-9.141-16.129-17.915-18.912-0.967-0.308-1.959-0.562-2.973-0.759-1.673-0.326-3.403-0.498-5.175-0.498-8.112 0-15.382 3.59-20.318 9.266 5.369 1.795 7.584 6.325 7.584 6.325-4.058-3.433-9.74-3.493-9.74-3.493-0.025 0-0.05 0-0.075 0C9.344 30.311 0 39.654 0 51.18c0 11.527 9.344 20.871 20.871 20.871H30.95c-0.058-0.482-0.088-0.973-0.088-1.469C30.861 66.379 32.962 62.484 36.478 60.17z" fill="#010c80" data-fill-palette-color="accent"></path><path d="M87.47 49.861c-0.469-0.117-0.945-0.213-1.431-0.289-0.467-0.07-0.94-0.121-1.421-0.148-0.325-0.02-0.654-0.031-0.985-0.031-0.019 0-0.038 0-0.057 0 0 0-4.302 0.045-7.375 2.645 0 0 1.677-3.432 5.743-4.789-0.19-0.221-0.389-0.435-0.59-0.648-0.811-0.855-1.696-1.642-2.644-2.348-0.808-0.601-1.662-1.143-2.554-1.622-1.283-0.688-2.647-1.24-4.075-1.642-0.354-0.1-0.711-0.189-1.073-0.27-0.353-0.08-0.71-0.149-1.068-0.209-1.101-0.183-2.23-0.279-3.382-0.279-1.341 0-2.65 0.129-3.918 0.377-0.768 0.15-1.52 0.341-2.252 0.573-7.531 2.39-13.166 9.036-14.082 17.114 0.072 0.041 0.146 0.082 0.221 0.125 0.492 0.283 0.947 0.607 1.368 0.963 0.663 0.559 1.238 1.188 1.728 1.818 0.467 0.604 0.857 1.209 1.173 1.758 0.715 1.242 1.052 2.199 1.052 2.199-0.401-0.803-0.912-1.475-1.462-2.041-0.625-0.641-1.301-1.139-1.924-1.518-1.248-0.758-2.288-1.039-2.288-1.039-0.816-0.232-1.675-0.365-2.561-0.391-0.097-0.004-0.195-0.006-0.292-0.006-0.296 0-0.588 0.014-0.877 0.037-1.78 0.148-3.432 0.744-4.844 1.674-2.828 1.863-4.696 5.066-4.696 8.707 0 0.498 0.038 0.988 0.104 1.469 0.05 0.348 0.115 0.688 0.198 1.021 0.085 0.348 0.186 0.689 0.306 1.021 1.442 4.025 5.29 6.906 9.81 6.906h40.312c8.729 0 15.805-7.076 15.805-15.805C99.438 57.791 94.345 51.576 87.47 49.861z" fill="#010c80" data-fill-palette-color="accent"></path></g></svg></g></svg></g><g><rect width="44.093309448909295" height="5.7782963339801485" y="81.77253698937953" x="276.87117055109064" fill="#0080ff" data-fill-palette-color="secondary"></rect><rect width="44.093309448909295" height="5.7782963339801485" y="81.77253698937953" x="76.53311999999997" fill="#0080ff" data-fill-palette-color="secondary"></rect></g></svg></g><defs></defs></svg><rect width="395.52" height="187.71781005615503" fill="none" stroke="none" visibility="hidden"></rect></g></svg></g></svg>